0
SECTION
2
HEADER
9
$ACADVER
1
AC1009
999
VDRAW GEOMETRY REVIEW ONLY; LAYOUT MM; UNSCALED; HUMAN CHECK REQUIRED
0
ENDSEC
0
SECTION
2
TABLES
0
TABLE
2
LTYPE
70
1
0
LTYPE
2
CONTINUOUS
70
0
3
Generated continuous geometry-review display
72
65
73
0
40
0
0
ENDTAB
0
TABLE
2
LAYER
70
1
0
LAYER
2
VDRAW_REVIEW_GEOMETRY
70
0
62
7
6
CONTINUOUS
0
ENDTAB
0
ENDSEC
0
SECTION
2
ENTITIES
0
LINE
5
100
8
VDRAW_REVIEW_GEOMETRY
62
7
6
CONTINUOUS
10
25.400000000000002
20
177.79999999999998
30
0
11
101.60000000000001
21
177.7974722222222
31
0
0
POLYLINE
5
101
8
VDRAW_REVIEW_GEOMETRY
62
7
6
CONTINUOUS
66
1
70
1
10
0
20
0
30
0
0
VERTEX
5
102
8
VDRAW_REVIEW_GEOMETRY
62
7
6
CONTINUOUS
70
0
10
50.800000000000004
20
152.39999999999998
30
0
0
VERTEX
5
103
8
VDRAW_REVIEW_GEOMETRY
62
7
6
CONTINUOUS
70
0
10
96.52000000000001
20
152.39999999999998
30
0
0
VERTEX
5
104
8
VDRAW_REVIEW_GEOMETRY
62
7
6
CONTINUOUS
70
0
10
96.52000000000001
20
126.99999999999997
30
0
0
VERTEX
5
105
8
VDRAW_REVIEW_GEOMETRY
62
7
6
CONTINUOUS
70
0
10
50.800000000000004
20
126.99999999999997
30
0
0
SEQEND
5
106
8
VDRAW_REVIEW_GEOMETRY
62
7
6
CONTINUOUS
0
POLYLINE
5
107
8
VDRAW_REVIEW_GEOMETRY
62
7
6
CONTINUOUS
66
1
70
1
10
0
20
0
30
0
0
VERTEX
5
108
8
VDRAW_REVIEW_GEOMETRY
62
7
6
CONTINUOUS
70
0
10
25.400000000000002
20
76.19999999999999
30
0
0
VERTEX
5
109
8
VDRAW_REVIEW_GEOMETRY
62
7
6
CONTINUOUS
70
0
10
127.00000000000001
20
76.19999999999999
30
0
0
VERTEX
5
10A
8
VDRAW_REVIEW_GEOMETRY
62
7
6
CONTINUOUS
70
0
10
127.00000000000001
20
50.79999999999998
30
0
0
VERTEX
5
10B
8
VDRAW_REVIEW_GEOMETRY
62
7
6
CONTINUOUS
70
0
10
25.400000000000002
20
50.79999999999998
30
0
0
SEQEND
5
10C
8
VDRAW_REVIEW_GEOMETRY
62
7
6
CONTINUOUS
0
LINE
5
10D
8
VDRAW_REVIEW_GEOMETRY
62
7
6
CONTINUOUS
10
177.8
20
76.19999999999999
30
0
11
228.60000000000002
21
76.19747222222222
31
0
0
POLYLINE
5
10E
8
VDRAW_REVIEW_GEOMETRY
62
7
6
CONTINUOUS
66
1
70
1
10
0
20
0
30
0
0
VERTEX
5
10F
8
VDRAW_REVIEW_GEOMETRY
62
7
6
CONTINUOUS
70
0
10
177.8
20
84.32799999999999
30
0
0
VERTEX
5
110
8
VDRAW_REVIEW_GEOMETRY
62
7
6
CONTINUOUS
70
0
10
228.60000000000002
20
84.32799999999999
30
0
0
VERTEX
5
111
8
VDRAW_REVIEW_GEOMETRY
62
7
6
CONTINUOUS
70
0
10
228.60000000000002
20
76.70799999999998
30
0
0
VERTEX
5
112
8
VDRAW_REVIEW_GEOMETRY
62
7
6
CONTINUOUS
70
0
10
177.8
20
76.70799999999998
30
0
0
SEQEND
5
113
8
VDRAW_REVIEW_GEOMETRY
62
7
6
CONTINUOUS
0
ENDSEC
0
EOF
