0
SECTION
2
HEADER
9
$ACADVER
1
AC1009
999
VDRAW GEOMETRY REVIEW ONLY; LAYOUT MM; UNSCALED; HUMAN CHECK REQUIRED
0
ENDSEC
0
SECTION
2
TABLES
0
TABLE
2
LTYPE
70
1
0
LTYPE
2
CONTINUOUS
70
0
3
Generated continuous geometry-review display
72
65
73
0
40
0
0
ENDTAB
0
TABLE
2
LAYER
70
1
0
LAYER
2
VDRAW_REVIEW_GEOMETRY
70
0
62
7
6
CONTINUOUS
0
ENDTAB
0
ENDSEC
0
SECTION
2
ENTITIES
0
POLYLINE
5
100
8
VDRAW_REVIEW_GEOMETRY
62
7
6
CONTINUOUS
66
1
70
1
10
0
20
0
30
0
0
VERTEX
5
101
8
VDRAW_REVIEW_GEOMETRY
62
7
6
CONTINUOUS
70
0
10
10
20
130
30
0
0
VERTEX
5
102
8
VDRAW_REVIEW_GEOMETRY
62
7
6
CONTINUOUS
70
0
10
30
20
130
30
0
0
VERTEX
5
103
8
VDRAW_REVIEW_GEOMETRY
62
7
6
CONTINUOUS
70
0
10
30
20
120
30
0
0
VERTEX
5
104
8
VDRAW_REVIEW_GEOMETRY
62
7
6
CONTINUOUS
70
0
10
10
20
120
30
0
0
SEQEND
5
105
8
VDRAW_REVIEW_GEOMETRY
62
7
6
CONTINUOUS
0
LINE
5
106
8
VDRAW_REVIEW_GEOMETRY
62
7
6
CONTINUOUS
10
38.1
20
86.5
30
0
11
38.1
21
111.9
31
0
0
CIRCLE
5
107
8
VDRAW_REVIEW_GEOMETRY
62
7
6
CONTINUOUS
10
15
20
125
30
0
40
5
0
POLYLINE
5
108
8
VDRAW_REVIEW_GEOMETRY
62
7
6
CONTINUOUS
66
1
70
1
10
0
20
0
30
0
0
VERTEX
5
109
8
VDRAW_REVIEW_GEOMETRY
62
7
6
CONTINUOUS
70
0
10
20
20
120
30
0
0
VERTEX
5
10A
8
VDRAW_REVIEW_GEOMETRY
62
7
6
CONTINUOUS
70
0
10
25
20
120
30
0
0
VERTEX
5
10B
8
VDRAW_REVIEW_GEOMETRY
62
7
6
CONTINUOUS
70
0
10
25
20
105
30
0
0
VERTEX
5
10C
8
VDRAW_REVIEW_GEOMETRY
62
7
6
CONTINUOUS
70
0
10
20
20
105
30
0
0
SEQEND
5
10D
8
VDRAW_REVIEW_GEOMETRY
62
7
6
CONTINUOUS
0
ENDSEC
0
EOF
