0
SECTION
2
HEADER
9
$ACADVER
1
AC1009
999
VDRAW GEOMETRY REVIEW ONLY; LAYOUT MM; UNSCALED; HUMAN CHECK REQUIRED
0
ENDSEC
0
SECTION
2
TABLES
0
TABLE
2
LTYPE
70
1
0
LTYPE
2
CONTINUOUS
70
0
3
Generated continuous geometry-review display
72
65
73
0
40
0
0
ENDTAB
0
TABLE
2
LAYER
70
1
0
LAYER
2
VDRAW_REVIEW_GEOMETRY
70
0
62
7
6
CONTINUOUS
0
ENDTAB
0
ENDSEC
0
SECTION
2
ENTITIES
0
POLYLINE
5
100
8
VDRAW_REVIEW_GEOMETRY
62
7
6
CONTINUOUS
66
1
70
1
10
0
20
0
30
0
0
VERTEX
5
101
8
VDRAW_REVIEW_GEOMETRY
62
7
6
CONTINUOUS
70
0
10
-1
20
148
30
0
0
VERTEX
5
102
8
VDRAW_REVIEW_GEOMETRY
62
7
6
CONTINUOUS
70
0
10
2
20
148
30
0
0
VERTEX
5
103
8
VDRAW_REVIEW_GEOMETRY
62
7
6
CONTINUOUS
70
0
10
2
20
146
30
0
0
VERTEX
5
104
8
VDRAW_REVIEW_GEOMETRY
62
7
6
CONTINUOUS
70
0
10
-1
20
146
30
0
0
SEQEND
5
105
8
VDRAW_REVIEW_GEOMETRY
62
7
6
CONTINUOUS
0
ENDSEC
0
EOF
