0
SECTION
2
HEADER
9
$ACADVER
1
AC1009
999
VDRAW GEOMETRY REVIEW ONLY; LAYOUT MM; UNSCALED; HUMAN CHECK REQUIRED
0
ENDSEC
0
SECTION
2
TABLES
0
TABLE
2
LTYPE
70
1
0
LTYPE
2
CONTINUOUS
70
0
3
Generated continuous geometry-review display
72
65
73
0
40
0
0
ENDTAB
0
TABLE
2
LAYER
70
1
0
LAYER
2
VDRAW_REVIEW_GEOMETRY
70
0
62
7
6
CONTINUOUS
0
ENDTAB
0
ENDSEC
0
SECTION
2
ENTITIES
0
LINE
5
100
8
VDRAW_REVIEW_GEOMETRY
62
7
6
CONTINUOUS
10
2
20
148
30
0
11
-1
21
146
31
0
0
LINE
5
101
8
VDRAW_REVIEW_GEOMETRY
62
7
6
CONTINUOUS
10
1.5
20
145.5
30
0
11
-0.5
21
148.5
31
0
0
LINE
5
102
8
VDRAW_REVIEW_GEOMETRY
62
7
6
CONTINUOUS
10
1.982319136297303
20
148.02602630481232
30
0
11
-0.9823191362973016
21
145.97397369518768
31
0
0
POLYLINE
5
103
8
VDRAW_REVIEW_GEOMETRY
62
7
6
CONTINUOUS
66
1
70
1
10
0
20
0
30
0
0
VERTEX
5
104
8
VDRAW_REVIEW_GEOMETRY
62
7
6
CONTINUOUS
70
0
10
-1
20
148
30
0
0
VERTEX
5
105
8
VDRAW_REVIEW_GEOMETRY
62
7
6
CONTINUOUS
70
0
10
2
20
148
30
0
0
VERTEX
5
106
8
VDRAW_REVIEW_GEOMETRY
62
7
6
CONTINUOUS
70
0
10
2
20
146
30
0
0
VERTEX
5
107
8
VDRAW_REVIEW_GEOMETRY
62
7
6
CONTINUOUS
70
0
10
-1
20
146
30
0
0
SEQEND
5
108
8
VDRAW_REVIEW_GEOMETRY
62
7
6
CONTINUOUS
0
POLYLINE
5
109
8
VDRAW_REVIEW_GEOMETRY
62
7
6
CONTINUOUS
66
1
70
1
10
0
20
0
30
0
0
VERTEX
5
10A
8
VDRAW_REVIEW_GEOMETRY
62
7
6
CONTINUOUS
70
0
10
-1
20
148
30
0
0
VERTEX
5
10B
8
VDRAW_REVIEW_GEOMETRY
62
7
6
CONTINUOUS
70
0
10
2
20
148
30
0
0
VERTEX
5
10C
8
VDRAW_REVIEW_GEOMETRY
62
7
6
CONTINUOUS
70
0
10
2
20
146
30
0
0
VERTEX
5
10D
8
VDRAW_REVIEW_GEOMETRY
62
7
6
CONTINUOUS
70
0
10
-1
20
146
30
0
0
SEQEND
5
10E
8
VDRAW_REVIEW_GEOMETRY
62
7
6
CONTINUOUS
0
ENDSEC
0
EOF
